<?xml version="1.0" encoding="utf-8"?>
<!-- Generator: Adobe Illustrator 24.2.3, SVG Export Plug-In . SVG Version: 6.00 Build 0)  -->
<svg version="1.1" id="_x30_" xmlns="http://www.w3.org/2000/svg" xmlns:xlink="http://www.w3.org/1999/xlink" x="0px" y="0px"
	 viewBox="0 0 214.6 193.6" style="enable-background:new 0 0 214.6 193.6;" xml:space="preserve">
<style type="text/css">
	.st0{stroke:#000000;stroke-width:0.7087;stroke-linecap:round;stroke-linejoin:round;stroke-miterlimit:10;}
</style>
<g id="LWPOLYLINE">
	<path class="st0" d="M131,5.4c0.8-1.1,2.1-1.8,3.5-1.8h74.6c0.6,0,1.1,0.2,1.6,0.5c1.3,0.9,1.6,2.7,0.7,3.9L203.1,20
		c-0.8,1.1-2.1,1.8-3.5,1.8H125c-0.6,0-1.1-0.2-1.6-0.5c-1.3-0.9-1.6-2.7-0.7-3.9L131,5.4z"/>
</g>
<g id="LWPOLYLINE_1_">
	<path class="st0" d="M108.9,38.5h75.8c0.6,0,1.1,0.2,1.6,0.5c1.3,0.9,1.6,2.7,0.7,3.9l-8.3,11.8c-0.8,1.1-2.1,1.8-3.5,1.8h-66.2
		c-0.9,0-1.8-0.5-2.3-1.2L73.6,8.1c-0.3-0.5-0.5-1-0.5-1.6c0-1.6,1.3-2.8,2.8-2.8h4.8c1.4,0,2.7,0.7,3.5,1.8l22.3,31.9
		C107.1,38.1,108,38.5,108.9,38.5z"/>
</g>
<g id="LWPOLYLINE_2_">
	<path class="st0" d="M45.1,3.6c1.4,0,2.7,0.7,3.5,1.8l45,64.2c1.6,2.3,4.2,3.6,7,3.6h59.8c0.6,0,1.1,0.2,1.6,0.5
		c1.3,0.9,1.6,2.7,0.7,3.9l-8.3,11.9c-0.8,1.1-2.1,1.8-3.5,1.8H97.9c-0.9,0-1.8-0.5-2.3-1.2L38.1,8.1c-0.3-0.5-0.5-1-0.5-1.6
		c0-1.6,1.3-2.8,2.8-2.8H45.1z"/>
</g>
<g id="LWPOLYLINE_3_">
	<path class="st0" d="M11.6,3.6c1.4,0,2.7,0.7,3.5,1.8l63,90c0.7,1,0.7,2.3,0,3.3l-63,90c-0.8,1.1-2.1,1.8-3.5,1.8H6.8
		c-0.6,0-1.1-0.2-1.6-0.5c-1.3-0.9-1.6-2.7-0.7-3.9l58.9-84c2.1-2.9,2.1-6.8,0-9.8L4.4,8.1C4.1,7.6,3.9,7,3.9,6.5
		c0-1.6,1.3-2.8,2.8-2.8H11.6z"/>
</g>
<g id="LWPOLYLINE_4_">
	<path class="st0" d="M49.2,188.7c-0.8,1.1-2.1,1.8-3.5,1.8h-5.3c-0.6,0-1.1-0.2-1.6-0.5c-1.3-0.9-1.6-2.7-0.7-3.9l57.4-82
		c0.5-0.8,1.4-1.2,2.3-1.2h52.6c1.4,0,2.7,0.7,3.5,1.8l8.3,11.8c0.3,0.5,0.5,1,0.5,1.6c0,1.6-1.3,2.8-2.8,2.8h-58.8
		c-2.8,0-5.4,1.4-7,3.6L49.2,188.7z"/>
</g>
<g id="LWPOLYLINE_5_">
	<path class="st0" d="M106.5,157l-22.2,31.7c-0.8,1.1-2.1,1.8-3.5,1.8H76c-0.6,0-1.1-0.2-1.6-0.5c-1.3-0.9-1.6-2.7-0.7-3.9l33-47.2
		c0.5-0.8,1.4-1.2,2.3-1.2h65.8c1.4,0,2.7,0.7,3.5,1.8l8.3,11.9c0.3,0.5,0.5,1,0.5,1.6c0,1.6-1.3,2.8-2.8,2.8h-75.5
		C107.9,155.8,107,156.2,106.5,157z"/>
</g>
<g id="LWPOLYLINE_6_">
	<path class="st0" d="M134.5,190.7c-1.4,0-2.7-0.7-3.5-1.8l-8.3-11.9c-0.3-0.5-0.5-1-0.5-1.6c0-1.6,1.3-2.8,2.8-2.8h74.2
		c1.4,0,2.7,0.7,3.5,1.8l8.3,11.9c0.3,0.5,0.5,1,0.5,1.6c0,1.6-1.3,2.8-2.8,2.8H134.5z"/>
</g>
</svg>
